<?xml version="1.0" encoding="UTF-8"?>
<svg version="1.1" xmlns="http://www.w3.org/2000/svg" width="360" height="360">
<path d="M0 0 C0.81984375 0.72574219 1.6396875 1.45148438 2.484375 2.19921875 C18.82094328 17.54646069 30.13735464 40.42119532 31 63 C31.03996094 64.04414063 31.07992187 65.08828125 31.12109375 66.1640625 C31.62494098 92.89760391 22.7113641 116.16639561 4.484375 135.6953125 C0.253852 140.03983163 -3.7991987 143.87951922 -9 147 C-9.66 147.66 -10.32 148.32 -11 149 C-13.58935954 150.37945902 -16.18093579 151.70647957 -18.8125 153 C-19.52470703 153.35578125 -20.23691406 153.7115625 -20.97070312 154.078125 C-41.08675273 164.05241047 -62.07400465 166.39061959 -84 162 C-85.01139038 161.81606689 -85.01139038 161.81606689 -86.04321289 161.62841797 C-91.94858271 160.46499505 -97.12004033 158.41033512 -102.5625 155.875 C-103.38041016 155.50246094 -104.19832031 155.12992188 -105.04101562 154.74609375 C-107.03087781 153.83843731 -109.0159627 152.92031935 -111 152 C-111 151.34 -111 150.68 -111 150 C-111.56074219 149.91105469 -112.12148437 149.82210937 -112.69921875 149.73046875 C-117.49664256 148.20734778 -121.19013635 144.18471575 -125 141 C-125.97066406 140.23429687 -125.97066406 140.23429687 -126.9609375 139.453125 C-131.72340954 135.61728779 -135.6359143 131.11259224 -139 126 C-139 125.34 -139 124.68 -139 124 C-139.66 124 -140.32 124 -141 124 C-142.32066755 121.60835832 -143.63161792 119.21219784 -144.9375 116.8125 C-145.31068359 116.13896484 -145.68386719 115.46542969 -146.06835938 114.77148438 C-148.03621493 111.13715655 -149.26663749 108.09911048 -150 104 C-150.66 103.67 -151.32 103.34 -152 103 C-152.7902681 100.32799917 -153.46165026 97.71522513 -154.0625 95 C-154.2387793 94.21834473 -154.41505859 93.43668945 -154.59667969 92.63134766 C-158.98377568 72.74013831 -158.11658477 51.71007922 -149.625 33 C-149.31191895 32.30156982 -148.99883789 31.60313965 -148.67626953 30.88354492 C-148.06199088 29.52012656 -147.44415384 28.15830416 -146.82226562 26.79833984 C-146.14824014 25.32420928 -145.48644166 23.84449374 -144.828125 22.36328125 C-142.82204745 18.04692586 -140.46642997 15.22458602 -137 12 C-135.86319587 10.71870997 -134.7391249 9.4260586 -133.625 8.125 C-126.60079969 0.04025304 -126.60079969 0.04025304 -123 -3 C-122.34 -3 -121.68 -3 -121 -3 C-121 -3.66 -121 -4.32 -121 -5 C-118.84100507 -6.53120208 -116.71026826 -7.90534147 -114.4375 -9.25 C-113.76291748 -9.65041504 -113.08833496 -10.05083008 -112.39331055 -10.46337891 C-76.228668 -31.36745701 -31.346297 -27.97293722 0 0 Z M-93.625 7.375 C-94.68460938 7.92148193 -94.68460938 7.92148193 -95.765625 8.47900391 C-113.44743379 17.91064146 -125.14580194 33.60572743 -131 52.625 C-135.10535377 72.29313278 -131.87234094 92.13283075 -121 109 C-113.58548791 119.48781356 -105.02185485 126.69138396 -93.6875 132.5625 C-93.00550537 132.92174561 -92.32351074 133.28099121 -91.62084961 133.65112305 C-88.54518739 135.16681484 -86.47280442 136.04523555 -83.01953125 135.71484375 C-82.35308594 135.47894531 -81.68664062 135.24304688 -81 135 C-80.36694531 129.66999989 -80.36694531 129.66999989 -82.5625 125.1875 C-84.5155269 124.23602536 -86.50318666 123.35577715 -88.5 122.5 C-91.47720036 121.22405699 -93.4554987 119.90837597 -96 118 C-96.99 118 -97.98 118 -99 118 C-99.37511719 117.11248047 -99.37511719 117.11248047 -99.7578125 116.20703125 C-101.16534521 113.70622628 -102.63278284 112.46012073 -104.875 110.6875 C-108.71271067 107.46382304 -110.80494968 104.48156108 -113 100 C-113.66 100 -114.32 100 -115 100 C-115.13535156 99.42507812 -115.27070312 98.85015625 -115.41015625 98.2578125 C-115.98010835 96.07614156 -116.6813891 93.9983788 -117.4375 91.875 C-119.0873631 86.9897956 -120.11289025 82.07265483 -121 77 C-121.30164063 75.56527344 -121.30164063 75.56527344 -121.609375 74.1015625 C-122.04082763 70.67582863 -121.71997785 67.95713388 -121.125 64.5625 C-120.94195312 63.49128906 -120.75890625 62.42007813 -120.5703125 61.31640625 C-120.38210937 60.22199219 -120.19390625 59.12757813 -120 58 C-119.87367187 56.83855469 -119.74734375 55.67710937 -119.6171875 54.48046875 C-117.56023569 42.88082281 -108.33253758 30.99690894 -99.25 23.75 C-94.6449978 20.54611409 -89.62961979 18.00254623 -84.66015625 15.41796875 C-82.14726148 14.24438828 -82.14726148 14.24438828 -81 13 C-80.92851801 11.64756083 -80.91600546 10.29165633 -80.9375 8.9375 C-80.958125 7.638125 -80.97875 6.33875 -81 5 C-85.93790798 3.26505936 -89.25359903 5.08437758 -93.625 7.375 Z M-44 4 C-45.42538466 5.21809061 -45.42538466 5.21809061 -45.4375 8.8125 C-45.45410483 10.98961426 -45.45410483 10.98961426 -45 13 C-42.90635479 14.9238902 -41.50254918 15.79187281 -39 17 C-24.38938473 24.63437554 -14.12833581 34.21489262 -8 50 C-3.09621094 65.66048764 -4.18240682 81.46089676 -10.71484375 96.5625 C-17.81268808 110.02467282 -27.68451284 117.15190492 -40.68359375 124.1796875 C-43.76077724 125.6675654 -43.76077724 125.6675654 -45 127 C-45.07148199 128.35243917 -45.08399454 129.70834367 -45.0625 131.0625 C-45.041875 132.361875 -45.02125 133.66125 -45 135 C-41.47948008 136.22777284 -39.99981754 135.99993345 -36.43359375 134.69921875 C-35.09175096 134.04850129 -33.76001043 133.37665995 -32.4375 132.6875 C-31.73584717 132.32793213 -31.03419434 131.96836426 -30.3112793 131.59790039 C-21.04999678 126.66030474 -12.36090896 120.19012964 -7 111 C-7 110.34 -7 109.68 -7 109 C-6.34 109 -5.68 109 -5 109 C5.30195621 89.1581501 10.20152805 69.39605788 3.26171875 47.26171875 C-0.94386023 36.38971116 -7.44710871 26.92706998 -16 19 C-16.56074219 18.45730469 -17.12148437 17.91460937 -17.69921875 17.35546875 C-24.60445086 10.92645955 -34.28042152 4 -44 4 Z M-68 25 C-68.23287008 26.68183948 -68.41264166 28.3712416 -68.5625 30.0625 C-68.64628906 30.98160156 -68.73007813 31.90070313 -68.81640625 32.84765625 C-68.90728516 33.91306641 -68.90728516 33.91306641 -69 35 C-69.64066406 35.1959375 -70.28132813 35.391875 -70.94140625 35.59375 C-78.28941003 38.13434147 -83.45795579 41.91591158 -87 49 C-87.50502343 54.53042052 -87.73807257 59.41030524 -85.375 64.5 C-79.49359557 70.69095203 -73.44908797 72.2063286 -65.3125 74.125 C-63.24484949 74.62246064 -61.17837674 75.12484954 -59.11328125 75.6328125 C-58.20360596 75.84824707 -57.29393066 76.06368164 -56.35668945 76.28564453 C-54 77 -54 77 -51 79 C-50.41796875 81.0234375 -50.41796875 81.0234375 -50.1875 83.375 C-50.09855469 84.14585937 -50.00960937 84.91671875 -49.91796875 85.7109375 C-50.0132852 88.3707203 -50.53713707 89.78670738 -52 92 C-57.23519636 94.99154078 -62.00749581 95.84984605 -68 95 C-71.4375 93.5 -71.4375 93.5 -74 92 C-74.66 92 -75.32 92 -76 92 C-76.12375 91.2575 -76.2475 90.515 -76.375 89.75 C-76.95486701 87.19858515 -77.73708739 85.2732427 -79 83 C-80.27875 82.979375 -81.5575 82.95875 -82.875 82.9375 C-83.95394531 82.92009766 -83.95394531 82.92009766 -85.0546875 82.90234375 C-87.08185404 82.87350758 -87.08185404 82.87350758 -89 84 C-88.47145778 90.60677771 -86.54517884 94.45482116 -81.875 99.125 C-77.8391336 101.75708678 -73.51216629 103.35284027 -69 105 C-68.90912109 106.06541016 -68.90912109 106.06541016 -68.81640625 107.15234375 C-68.69072266 108.53099609 -68.69072266 108.53099609 -68.5625 109.9375 C-68.48128906 110.85402344 -68.40007812 111.77054687 -68.31640625 112.71484375 C-68.23955024 114.96159732 -68.23955024 114.96159732 -67 116 C-65.12678052 116.16053815 -65.12678052 116.16053815 -63 116.125 C-62.278125 116.12757813 -61.55625 116.13015625 -60.8125 116.1328125 C-58.97910585 116.19695276 -58.97910585 116.19695276 -58 115 C-57.92820036 113.48071962 -57.91607993 111.95832518 -57.9375 110.4375 C-57.94652344 109.61121094 -57.95554687 108.78492188 -57.96484375 107.93359375 C-57.97644531 107.29550781 -57.98804688 106.65742188 -58 106 C-57.11957031 105.56429687 -56.23914063 105.12859375 -55.33203125 104.6796875 C-47.99189208 100.91593134 -42.7772671 98.02553094 -38.6875 90.625 C-36.95302968 84.00247697 -37.73206185 78.97243868 -41 73 C-45.26412005 66.88809459 -52.10014939 65.68975933 -59 64 C-60.99986403 63.66585186 -62.99985409 63.33245669 -65 63 C-66.61578595 62.56160846 -68.22205855 62.08542197 -69.8125 61.5625 C-70.58207031 61.31628906 -71.35164063 61.07007813 -72.14453125 60.81640625 C-74 60 -74 60 -75 58 C-75.203125 55.94140625 -75.203125 55.94140625 -75.25 53.5625 C-75.27578125 52.78003906 -75.3015625 51.99757813 -75.328125 51.19140625 C-75 49 -75 49 -73.734375 47.27734375 C-69.53835104 44.1870288 -63.99303468 44.5168031 -59 45 C-55.22884539 46.50846184 -54.22123729 47.59703208 -52.25 51.1875 C-50.35392239 54.19543517 -50.35392239 54.19543517 -47.75 54.38671875 C-45.47178314 54.37603961 -43.26241337 54.2610477 -41 54 C-39.86015141 50.58045423 -40.03938966 50.1951126 -41.5625 47.125 C-44.058762 42.49030196 -47.03547084 39.02206691 -52.1640625 37.25390625 C-54.0915259 36.76012146 -56.04513854 36.37074959 -58 36 C-57.98839844 35.30132812 -57.97679687 34.60265625 -57.96484375 33.8828125 C-57.95582031 32.97273438 -57.94679688 32.06265625 -57.9375 31.125 C-57.92589844 30.22007812 -57.91429687 29.31515625 -57.90234375 28.3828125 C-57.83750743 25.9831415 -57.83750743 25.9831415 -59 24 C-63.79970742 23.47166284 -63.79970742 23.47166284 -68 25 Z " fill="#2374C7" transform="translate(243,110)"/>
<path d="M0 0 C0.89589844 -0.01417969 1.79179687 -0.02835938 2.71484375 -0.04296875 C5.0625 0.1875 5.0625 0.1875 7.0625 2.1875 C7.2578125 4.5703125 7.2578125 4.5703125 7.1875 7.3125 C7.16945312 8.22257813 7.15140625 9.13265625 7.1328125 10.0703125 C7.10960937 10.76898438 7.08640625 11.46765625 7.0625 12.1875 C7.701875 12.31125 8.34125 12.435 9 12.5625 C9.680625 12.76875 10.36125 12.975 11.0625 13.1875 C11.3925 13.8475 11.7225 14.5075 12.0625 15.1875 C9.7525 14.5275 7.4425 13.8675 5.0625 13.1875 C4.89461627 11.56262529 4.72823213 9.93759558 4.5625 8.3125 C4.4696875 7.40757812 4.376875 6.50265625 4.28125 5.5703125 C4.0625 3.1875 4.0625 3.1875 4.0625 1.1875 C1.4225 1.5175 -1.2175 1.8475 -3.9375 2.1875 C-4.2675 5.4875 -4.5975 8.7875 -4.9375 12.1875 C-5.2675 12.1875 -5.5975 12.1875 -5.9375 12.1875 C-5.96437279 10.37507948 -5.98383715 8.56254767 -6 6.75 C-6.01160156 5.74066406 -6.02320313 4.73132813 -6.03515625 3.69140625 C-5.86383184 -0.70135156 -3.90349447 0.02800211 0 0 Z " fill="#2E6AA7" transform="translate(179.9375,132.8125)"/>
<path d="M0 0 C0.66 0.99 1.32 1.98 2 3 C1.01 3.33 0.02 3.66 -1 4 C-1.05671875 4.86367187 -1.1134375 5.72734375 -1.171875 6.6171875 C-2.19855671 10.81108542 -4.31330094 13.12695997 -7.25 16.125 C-7.72824219 16.63675781 -8.20648438 17.14851563 -8.69921875 17.67578125 C-11.60258461 20.73651112 -14.63830947 23.4357908 -18 26 C-18.66 25.67 -19.32 25.34 -20 25 C-19.49210938 24.59910156 -18.98421875 24.19820312 -18.4609375 23.78515625 C-13.72578224 19.87466286 -10.37858831 15.99657653 -7.2265625 10.72265625 C-6.82179687 10.15417969 -6.41703125 9.58570313 -6 9 C-5.34 9 -4.68 9 -4 9 C-3.71125 8.071875 -3.4225 7.14375 -3.125 6.1875 C-2 3 -2 3 0 0 Z " fill="#2C6BAB" transform="translate(242,210)"/>
<path d="M0 0 C0.33 0 0.66 0 1 0 C1.02505615 0.68513672 1.0501123 1.37027344 1.07592773 2.07617188 C1.19285607 5.2175935 1.31513874 8.35878548 1.4375 11.5 C1.47681641 12.57765625 1.51613281 13.6553125 1.55664062 14.765625 C1.78658049 20.56718464 2.16998731 26.25268527 3 32 C1.04718353 29.0707753 0.55310392 27.55521556 -0.0625 24.1875 C-0.29646484 22.94033203 -0.29646484 22.94033203 -0.53515625 21.66796875 C-0.76525391 20.34732422 -0.76525391 20.34732422 -1 19 C-1.20367187 18.04480469 -1.40734375 17.08960938 -1.6171875 16.10546875 C-2.05520134 12.55219323 -1.67335092 9.64637587 -1.0625 6.125 C-0.86785156 4.97257813 -0.67320313 3.82015625 -0.47265625 2.6328125 C-0.31667969 1.76398438 -0.16070312 0.89515625 0 0 Z " fill="#2E68A3" transform="translate(122,168)"/>
<path d="M0 0 C3.36740273 2.70198782 4.60439534 6.34533176 6.125 10.25 C6.38925781 10.89324219 6.65351563 11.53648437 6.92578125 12.19921875 C8.62232783 16.47933879 9.51365624 20.4212514 10 25 C6.90086025 21.90086025 6.19302882 17.70156809 4.94335938 13.5859375 C3.75152908 9.81366467 2.36167361 7.125947 0 4 C0 2.68 0 1.36 0 0 Z " fill="#2C6AAA" transform="translate(261,134)"/>
<path d="M0 0 C0.66 0 1.32 0 2 0 C5.00524437 4.98488948 4.39082975 10.36303249 4 16 C3 19.75 3 19.75 2 22 C1.34 22 0.68 22 0 22 C0.495 20.515 0.495 20.515 1 19 C2.89900175 12.27210808 2.18442698 6.55328093 0 0 Z " fill="#2D69A7" transform="translate(202,183)"/>
<path d="M0 0 C1 2 1 2 0.07421875 5.22265625 C-0.38002553 6.50546342 -0.84263454 7.78533182 -1.3125 9.0625 C-1.53873047 9.71283203 -1.76496094 10.36316406 -1.99804688 11.03320312 C-3.74552579 15.8727629 -3.74552579 15.8727629 -6 17 C-6.34884724 12.10160332 -5.46792622 9.34104063 -3 5.125 C-2.443125 4.15820312 -1.88625 3.19140625 -1.3125 2.1953125 C-0.879375 1.47085938 -0.44625 0.74640625 0 0 Z " fill="#2C6AA9" transform="translate(129,150)"/>
<path d="M0 0 C6.34339651 1.80610595 11.56938255 4.25627734 17 8 C16.01 8.495 16.01 8.495 15 9 C12.64018187 8.06421005 10.30368736 7.06652192 8 6 C8 5.34 8 4.68 8 4 C6.865625 3.71125 5.73125 3.4225 4.5625 3.125 C3.386875 2.75375 2.21125 2.3825 1 2 C0.67 1.34 0.34 0.68 0 0 Z " fill="#2B6BAC" transform="translate(214,93)"/>
<path d="M0 0 C0.33 0 0.66 0 1 0 C1.2358396 5.77807024 0.86783046 10.51324804 -1 16 C-1.33 16 -1.66 16 -2 16 C-2.20674944 10.21101581 -1.59162079 5.57067277 0 0 Z " fill="#2C6AA9" transform="translate(89,155)"/>
<path d="M0 0 C2 1 2 1 2.8515625 3.06640625 C3.10679687 3.89011719 3.36203125 4.71382812 3.625 5.5625 C3.88539063 6.38878906 4.14578125 7.21507812 4.4140625 8.06640625 C4.60742188 8.70449219 4.80078125 9.34257812 5 10 C4.34 10 3.68 10 3 10 C1.68 7.03 0.36 4.06 -1 1 C-0.67 0.67 -0.34 0.34 0 0 Z " fill="#2F669F" transform="translate(125,200)"/>
</svg>
