<?xml version="1.0" encoding="UTF-8"?>
<svg version="1.1" xmlns="http://www.w3.org/2000/svg" width="512" height="512">
<path d="M0 0 C0.59474121 0.53302734 1.18948242 1.06605469 1.80224609 1.61523438 C8.60520642 7.74697878 15.21295275 13.88301021 21 21 C21.97189786 22.14907938 22.94464191 23.29744328 23.91796875 24.4453125 C31.78363621 33.81199878 38.71378384 43.51006191 45 54 C45.68425049 55.13598633 45.68425049 55.13598633 46.38232422 56.29492188 C77.7800589 109.0897127 86.23943575 174.47798573 71.4675293 233.89746094 C61.79739801 271.010647 44.61633709 304.36116424 19 333 C18.49936035 333.56235352 17.9987207 334.12470703 17.48291016 334.70410156 C11.65584234 341.22003879 5.73391574 347.40888383 -1 353 C-2.30710937 354.17369141 -2.30710937 354.17369141 -3.640625 355.37109375 C-45.1857749 392.38404548 -101.01232602 411.2048303 -156.1875 411.25 C-157.30724716 411.25101212 -157.30724716 411.25101212 -158.44961548 411.25204468 C-171.81397999 411.23298708 -184.82096605 410.34211973 -198 408 C-198.94311035 407.83371094 -199.8862207 407.66742188 -200.85791016 407.49609375 C-243.12797383 399.7572111 -282.02004834 380.70265156 -314 352 C-314.89211182 351.20045898 -314.89211182 351.20045898 -315.80224609 350.38476562 C-322.60520642 344.25302122 -329.21295275 338.11698979 -335 331 C-335.97189786 329.85092062 -336.94464191 328.70255672 -337.91796875 327.5546875 C-345.78363621 318.18800122 -352.71378384 308.48993809 -359 298 C-359.45616699 297.24267578 -359.91233398 296.48535156 -360.38232422 295.70507812 C-391.7800589 242.9102873 -400.23943575 177.52201427 -385.4675293 118.10253906 C-375.80721992 81.02704871 -358.64817561 47.5767123 -333 19 C-332.20045898 18.10788818 -332.20045898 18.10788818 -331.38476562 17.19775391 C-325.25302122 10.39479358 -319.11698979 3.78704725 -312 -2 C-310.85092062 -2.97189786 -309.70255672 -3.94464191 -308.5546875 -4.91796875 C-299.18714033 -12.78356119 -289.47492945 -19.68991577 -279 -26 C-278.30213379 -26.4237793 -277.60426758 -26.84755859 -276.88525391 -27.28417969 C-251.21898302 -42.69697379 -222.49338155 -52.25258685 -193 -57 C-192.28763184 -57.11714355 -191.57526367 -57.23428711 -190.84130859 -57.35498047 C-122.82254799 -67.94406811 -50.97032428 -45.74689398 0 0 Z M-97.50390625 51.97265625 C-98.62369873 52.61726807 -99.74349121 53.26187988 -100.8972168 53.92602539 C-102.11906861 54.63802788 -103.34082723 55.35019034 -104.5625 56.0625 C-105.82755025 56.79411038 -107.09293591 57.52514107 -108.35864258 58.25561523 C-110.96721172 59.76224353 -113.57369435 61.2723943 -116.17871094 62.78515625 C-119.69804109 64.82745265 -123.22648268 66.85350986 -126.7578125 68.875 C-128.90111112 70.10404556 -131.04434329 71.333207 -133.1875 72.5625 C-134.10797119 73.0891626 -135.02844238 73.6158252 -135.97680664 74.15844727 C-137.93981378 75.28903682 -139.88241289 76.45563368 -141.80558777 77.65272522 C-145.12401081 79.62379934 -148.53934874 81.07876551 -152.1026001 82.55587769 C-164.40117299 87.97242742 -164.40117299 87.97242742 -172.35116005 98.22421837 C-174.16472747 107.06113705 -173.52491657 115.99425613 -172.94641995 124.93572736 C-172.72648561 128.85721517 -172.67152322 132.78070049 -172.60398865 136.70726013 C-172.40572682 146.66589686 -171.99335876 156.61164872 -171.5625 166.5625 C-171.09980308 177.31425693 -170.67903578 188.06055357 -170.48960155 198.82110351 C-170.41503815 202.72009303 -170.28967126 206.6031483 -170.04141426 210.49524117 C-168.5518898 234.06262233 -168.5518898 234.06262233 -174.31819916 240.6471386 C-180.06430039 245.21378244 -186.36439886 248.15387884 -193.16196632 250.82611847 C-196.96169743 252.39778205 -200.17678741 254.41711855 -203.6015625 256.68359375 C-204.62507813 257.31974609 -205.64859375 257.95589844 -206.703125 258.61132812 C-208.72796513 259.87685321 -210.745759 261.15369575 -212.7578125 262.43945312 C-213.758125 263.05626953 -214.7584375 263.67308594 -215.7890625 264.30859375 C-217.08384521 265.12541626 -217.08384521 265.12541626 -218.40478516 265.95874023 C-221.75297504 267.30211087 -223.54856238 266.95287853 -227 266 C-229.53515625 264.88354492 -229.53515625 264.88354492 -232.0625 263.48046875 C-233.01431152 262.95799561 -233.96612305 262.43552246 -234.94677734 261.8972168 C-236.45812256 261.05090698 -236.45812256 261.05090698 -238 260.1875 C-239.04494629 259.61233643 -240.08989258 259.03717285 -241.16650391 258.44458008 C-244.44856007 256.63725325 -247.72441073 254.81901605 -251 253 C-254.14620912 251.26128051 -257.29420518 249.5259692 -260.4453125 247.79614258 C-262.37231297 246.73805874 -264.29687275 245.67551555 -266.21875 244.6081543 C-267.08242188 244.13289307 -267.94609375 243.65763184 -268.8359375 243.16796875 C-269.59438965 242.74797607 -270.3528418 242.3279834 -271.13427734 241.89526367 C-272.95562541 240.85579339 -272.95562541 240.85579339 -275 241 C-278.40814382 187.78732721 -278.40814382 187.78732721 -271.78759766 177.95898438 C-266.08063436 172.40432622 -259.19772887 170.266502 -251.64599609 168.19335938 C-245.4191029 166.15525478 -240.21444284 162.48238324 -234.75 158.9375 C-225.19903522 152.87089596 -225.19903522 152.87089596 -220.84375 153.33984375 C-219.9053125 153.88769531 -218.966875 154.43554688 -218 155 C-217.36610352 155.3405542 -216.73220703 155.6811084 -216.07910156 156.03198242 C-213.94204266 157.18694071 -211.84569743 158.39675242 -209.75 159.625 C-205.14973319 162.70881566 -205.14973319 162.70881566 -200 164 C-200 152.45 -200 140.9 -200 129 C-203.50625 126.97875 -207.0125 124.9575 -210.625 122.875 C-211.71893066 122.23030762 -212.81286133 121.58561523 -213.93994141 120.92138672 C-214.81827637 120.42912598 -215.69661133 119.93686523 -216.6015625 119.4296875 C-217.49182129 118.91647949 -218.38208008 118.40327148 -219.29931641 117.87451172 C-223.56535344 116.49312095 -226.36146122 118.18045936 -230.2121582 120.10644531 C-230.90140381 120.50959961 -231.59064941 120.91275391 -232.30078125 121.328125 C-233.1 121.79089844 -233.89921875 122.25367188 -234.72265625 122.73046875 C-235.57730469 123.23191406 -236.43195313 123.73335938 -237.3125 124.25 C-239.19337956 125.33963136 -241.07491834 126.42812539 -242.95703125 127.515625 C-243.94268066 128.08603516 -244.92833008 128.65644531 -245.94384766 129.24414062 C-251.10358728 132.20857962 -256.30264757 135.10217969 -261.5 138 C-270.31052038 142.91895257 -279.09297539 147.8832277 -287.83789062 152.91796875 C-293.84831969 156.37087368 -299.91001393 159.67818941 -306 163 C-306 194.02 -306 225.04 -306 257 C-288.49270546 266.80561623 -288.49270546 266.80561623 -270.97900391 276.59960938 C-263.08042391 281.01456087 -255.1925566 285.44606389 -247.34106445 289.94433594 C-245.56237842 290.96310334 -243.7823163 291.97947284 -242.00073242 292.99316406 C-238.46347936 295.00615055 -234.93640883 297.02381934 -231.46484375 299.1484375 C-230.50707031 299.71820313 -229.54929687 300.28796875 -228.5625 300.875 C-227.41974609 301.58269531 -227.41974609 301.58269531 -226.25390625 302.3046875 C-222.8196148 303.36413963 -221.28950079 302.47591212 -218 301 C-214.35664346 299.03632523 -210.80388305 296.93296147 -207.25 294.8125 C-205.08767568 293.53571949 -202.92489978 292.25970351 -200.76171875 290.984375 C-199.08795166 289.9953418 -199.08795166 289.9953418 -197.38037109 288.98632812 C-191.02597165 285.25244152 -184.62587191 281.59717923 -178.22558594 277.94262695 C-176.216476 276.7887733 -174.22773487 275.59890519 -172.25811768 274.37886047 C-168.92132158 272.40290192 -165.49455482 270.93630972 -161.91333008 269.45455933 C-149.6033779 263.99754604 -149.6033779 263.99754604 -141.57722282 253.73395348 C-139.54077631 244.79507253 -139.90474404 235.70619145 -140.26322246 226.60323071 C-140.39261314 222.63591707 -140.37809886 218.66898807 -140.379776 214.69993591 C-140.40434298 207.20625345 -140.55561806 199.72087673 -140.75414139 192.2300033 C-140.97408014 183.69354878 -141.05021936 175.15762662 -141.11515224 166.618806 C-141.25174065 149.07501898 -141.56608287 131.53890287 -142 114 C-141.27686111 113.61157425 -140.55372223 113.2231485 -139.80867004 112.82295227 C-137.06143644 111.34683268 -134.31457644 109.87002062 -131.56794739 108.39277649 C-129.82035512 107.45310887 -128.07235403 106.51420171 -126.32434082 105.57531738 C-116.22220061 100.14095122 -106.18543743 94.59331005 -96.17456055 88.99291992 C-92.70912325 87.41057643 -90.28258548 86.53119922 -86.61010742 87.87353516 C-85.37031128 88.57422119 -85.37031128 88.57422119 -84.10546875 89.2890625 C-83.16074707 89.81282471 -82.21602539 90.33658691 -81.24267578 90.8762207 C-80.23446777 91.45331787 -79.22625977 92.03041504 -78.1875 92.625 C-76.04311985 93.81928177 -73.89858376 95.01328357 -71.75390625 96.20703125 C-70.64805176 96.82916504 -69.54219727 97.45129883 -68.40283203 98.09228516 C-62.83602723 101.21317859 -57.23163828 104.26394104 -51.625 107.3125 C-50.59141357 107.8811377 -49.55782715 108.44977539 -48.49291992 109.03564453 C-47.061698 109.81657471 -47.061698 109.81657471 -45.6015625 110.61328125 C-44.75932129 111.07516846 -43.91708008 111.53705566 -43.04931641 112.01293945 C-41.07879295 113.14464716 -41.07879295 113.14464716 -39 113 C-35.58806524 164.38081879 -35.58806524 164.38081879 -42.24462891 173.96240234 C-48.00010474 179.45045803 -54.9027923 181.7011377 -62.43994141 183.83496094 C-68.30034953 185.75279577 -73.2138282 189.06420841 -78.375 192.375 C-80.14721483 193.45592758 -81.92537786 194.52719928 -83.7109375 195.5859375 C-84.44618652 196.0298584 -85.18143555 196.4737793 -85.93896484 196.93115234 C-88.06435567 198.03337469 -89.61401651 198.75869815 -92 199 C-94.25830078 198.10375977 -94.25830078 198.10375977 -96.6953125 196.69140625 C-98.01595703 195.94213867 -98.01595703 195.94213867 -99.36328125 195.17773438 C-100.27464844 194.64470703 -101.18601562 194.11167969 -102.125 193.5625 C-103.9380939 192.51863598 -105.7531061 191.47809448 -107.5703125 190.44140625 C-108.37227051 189.97420166 -109.17422852 189.50699707 -110.00048828 189.02563477 C-111.92205534 187.84786578 -111.92205534 187.84786578 -114 188 C-114 199.55 -114 211.1 -114 223 C-110.49375 225.02125 -106.9875 227.0425 -103.375 229.125 C-102.28106934 229.76969238 -101.18713867 230.41438477 -100.06005859 231.07861328 C-99.18172363 231.57087402 -98.30338867 232.06313477 -97.3984375 232.5703125 C-96.50817871 233.08352051 -95.61791992 233.59672852 -94.70068359 234.12548828 C-90.43464656 235.50687905 -87.63853878 233.81954064 -83.7878418 231.89355469 C-83.09859619 231.49040039 -82.40935059 231.08724609 -81.69921875 230.671875 C-80.90016113 230.20918213 -80.10110352 229.74648926 -79.27783203 229.26977539 C-78.42302246 228.76824951 -77.56821289 228.26672363 -76.6875 227.75 C-74.80400269 226.65908981 -72.9198606 225.56929229 -71.03515625 224.48046875 C-70.04918457 223.90989746 -69.06321289 223.33932617 -68.04736328 222.75146484 C-62.93128037 219.81100828 -57.77789716 216.93779815 -52.625 214.0625 C-43.30000121 208.85285397 -33.99137878 203.61526932 -24.69775391 198.34985352 C-23.81780762 197.85155029 -22.93786133 197.35324707 -22.03125 196.83984375 C-21.27392578 196.41050537 -20.51660156 195.98116699 -19.73632812 195.53881836 C-15.83291732 193.34367219 -11.91474943 191.1748608 -8 189 C-8 157.98 -8 126.96 -8 95 C-16.25 90.38 -24.5 85.76 -33 81 C-44.5 74.5 -44.5 74.5 -50.12890625 71.3125 C-54.31687669 68.94504523 -58.51338544 66.59343329 -62.71484375 64.25 C-63.83632813 63.62416016 -64.9578125 62.99832031 -66.11328125 62.35351562 C-68.26723646 61.15251475 -70.42212695 59.95318914 -72.578125 58.75585938 C-77.62062122 55.94382511 -82.56956469 53.08638676 -87.36352539 49.86523438 C-91.32230965 47.77215196 -94.01588405 49.95112766 -97.50390625 51.97265625 Z " fill="#8E33D5" transform="translate(413,80)"/>
</svg>
