<?xml version="1.0" encoding="UTF-8"?>
<svg version="1.1" xmlns="http://www.w3.org/2000/svg" width="512" height="512">
<path d="M0 0 C1.01790619 0.00215515 2.03581238 0.0043103 3.08456421 0.00653076 C17.69363523 0.05620146 32.02575853 0.30709809 46.375 3.3125 C47.34985352 3.51117676 48.32470703 3.70985352 49.32910156 3.91455078 C97.7109774 14.03517194 141.69928269 35.9516877 177.375 70.3125 C178.3640332 71.26068604 178.3640332 71.26068604 179.37304688 72.22802734 C188.86130305 81.37247479 197.6012044 90.66984009 205.375 101.3125 C206.23306152 102.46355017 207.09113451 103.61459177 207.94921875 104.765625 C213.98736829 112.95680614 219.34595521 121.47054105 224.375 130.3125 C224.73948242 130.94430176 225.10396484 131.57610352 225.47949219 132.22705078 C247.08534998 169.97532572 256.85198095 212.74189997 256.6875 255.9375 C256.68534485 256.95540619 256.6831897 257.97331238 256.68096924 259.02206421 C256.63129854 273.63113523 256.38040191 287.96325853 253.375 302.3125 C253.07698486 303.77478027 253.07698486 303.77478027 252.77294922 305.26660156 C242.65232806 353.6484774 220.7358123 397.63678269 186.375 433.3125 C185.74287598 433.97185547 185.11075195 434.63121094 184.45947266 435.31054688 C175.31502521 444.79880305 166.01765991 453.5387044 155.375 461.3125 C154.22394983 462.17056152 153.07290823 463.02863451 151.921875 463.88671875 C143.73224019 469.92427396 135.22961724 475.30707302 126.375 480.3125 C125.66778809 480.7146875 124.96057617 481.116875 124.23193359 481.53125 C101.09654164 494.5566741 75.92537591 503.30551461 49.9375 508.625 C49.21860596 508.77235596 48.49971191 508.91971191 47.7590332 509.0715332 C33.08339502 511.86090125 18.55831162 512.66142619 3.64770508 512.62817383 C0.70811513 512.6250221 -2.2304558 512.64854926 -5.16992188 512.67382812 C-18.54306192 512.71848737 -31.43916711 511.51301542 -44.625 509.3125 C-46.33055054 509.03031616 -46.33055054 509.03031616 -48.07055664 508.74243164 C-91.33802759 500.97044532 -132.38793216 480.98345309 -165.625 452.3125 C-166.37007813 451.67828125 -167.11515625 451.0440625 -167.8828125 450.390625 C-181.38779833 438.57948485 -194.05918743 425.82889772 -204.625 411.3125 C-205.48149066 410.16255169 -206.33826433 409.01281411 -207.1953125 407.86328125 C-213.23534209 399.67315742 -218.61867614 391.16870382 -223.625 382.3125 C-224.0271875 381.60528809 -224.429375 380.89807617 -224.84375 380.16943359 C-237.8691741 357.03404164 -246.61801461 331.86287591 -251.9375 305.875 C-252.08485596 305.15610596 -252.23221191 304.43721191 -252.3840332 303.6965332 C-255.35789088 288.05024391 -255.99800362 272.57681954 -255.9375 256.6875 C-255.93534485 255.66959381 -255.9331897 254.65168762 -255.93096924 253.60293579 C-255.88129854 238.99386477 -255.63040191 224.66174147 -252.625 210.3125 C-252.42632324 209.33764648 -252.22764648 208.36279297 -252.02294922 207.35839844 C-241.90232806 158.9765226 -219.9858123 114.98821731 -185.625 79.3125 C-184.99287598 78.65314453 -184.36075195 77.99378906 -183.70947266 77.31445312 C-174.56502521 67.82619695 -165.26765991 59.0862956 -154.625 51.3125 C-153.47394983 50.45443848 -152.32290823 49.59636549 -151.171875 48.73828125 C-142.98224019 42.70072604 -134.47961724 37.31792698 -125.625 32.3125 C-124.91778809 31.9103125 -124.21057617 31.508125 -123.48193359 31.09375 C-100.34654164 18.0683259 -75.17537591 9.31948539 -49.1875 4 C-48.46860596 3.85264404 -47.74971191 3.70528809 -47.0090332 3.5534668 C-31.36274391 0.57960912 -15.88931954 -0.06050362 0 0 Z " fill="#54D6B5" transform="translate(255.625,-0.3125)"/>
<path d="M0 0 C2.68530623 0.61034164 4.17926553 1.50258575 6.12182617 3.45385742 C7.08668945 4.40518555 7.08668945 4.40518555 8.07104492 5.37573242 C8.70655273 6.06151367 9.34206055 6.74729492 9.99682617 7.45385742 C10.66327148 8.16026367 11.3297168 8.86666992 12.01635742 9.59448242 C16.79586154 14.85096353 16.79586154 14.85096353 17.99682617 18.45385742 C21.71516091 20.68485826 25.15300376 21.57707838 29.45768738 21.61207581 C30.37054001 21.62186462 31.28339264 21.63165344 32.22390747 21.64173889 C33.2230014 21.64749435 34.22209534 21.65324982 35.25146484 21.65917969 C36.83220039 21.67402908 36.83220039 21.67402908 38.44487 21.68917847 C41.93482197 21.72081448 45.42478756 21.7455593 48.91479492 21.77026367 C51.33189756 21.79083138 53.74899659 21.8118278 56.16609192 21.83323669 C62.53320392 21.88847628 68.90034848 21.93787729 75.26751709 21.98608398 C81.76260278 22.0362852 88.25764109 22.09197847 94.75268555 22.1472168 C107.50069169 22.25482147 120.24873826 22.35644778 132.99682617 22.45385742 C133.7941724 25.47717085 134.59086665 28.50065572 135.38745117 31.52416992 C135.72317139 32.79707886 135.72317139 32.79707886 136.06567383 34.09570312 C140.98411682 52.76957186 140.98411682 52.76957186 141.57495117 61.33666992 C141.65648437 62.48796387 141.73801758 63.63925781 141.82202148 64.82543945 C141.9085498 66.12650635 141.9085498 66.12650635 141.99682617 67.45385742 C124.12479829 67.54736018 106.25283402 67.61786568 88.38061428 67.66110611 C80.08194736 67.68171838 71.78343256 67.70981331 63.48486328 67.75561523 C56.25057229 67.79552405 49.01639147 67.82129995 41.78199345 67.8302114 C37.95251483 67.83541935 34.12335138 67.84763168 30.29397392 67.87677765 C26.68652542 67.90401096 23.07952068 67.91228665 19.47197914 67.90628815 C17.52307081 67.90790618 15.57421036 67.92938754 13.62542725 67.95153809 C5.26666888 67.91228041 0.674957 66.96954714 -5.47973633 61.08666992 C-6.1887207 60.2590918 -6.89770508 59.43151367 -7.62817383 58.57885742 C-8.38743164 57.70487305 -9.14668945 56.83088867 -9.92895508 55.93041992 C-11.58269364 53.95589968 -13.2063157 51.96431712 -14.81567383 49.95385742 C-17.77644713 46.5701165 -19.46376346 45.65465008 -23.87817383 45.07885742 C-30.49816066 45.87325584 -34.07192806 50.47318061 -38.13989258 55.28979492 C-40.08546447 57.54943188 -42.10371503 59.69930763 -44.19067383 61.82885742 C-44.82360352 62.4759668 -45.4565332 63.12307617 -46.10864258 63.78979492 C-50.21460169 67.39626622 -53.43448034 67.70246741 -58.86212158 67.69436646 C-59.55157608 67.6960753 -60.24103057 67.69778415 -60.95137763 67.69954479 C-63.26074108 67.70283806 -65.56981373 67.69183884 -67.87915039 67.6809082 C-69.53489169 67.68034405 -71.1906335 67.68066072 -72.84637451 67.68179321 C-77.3419058 67.68236758 -81.83733059 67.67059966 -86.3328371 67.6566453 C-91.03070347 67.64415195 -95.72857222 67.64296854 -100.42645264 67.64059448 C-109.32283398 67.63437561 -118.21916624 67.61795927 -127.11552596 67.5978955 C-137.24359326 67.57554918 -147.37166289 67.56454626 -157.49974871 67.55450463 C-178.33425116 67.53359341 -199.1687094 67.4984095 -220.00317383 67.45385742 C-219.85667943 65.3905029 -219.70665982 63.32739849 -219.55517578 61.2644043 C-219.47201614 60.11548706 -219.38885651 58.96656982 -219.30317688 57.78283691 C-218.91007486 53.42078607 -218.14076551 49.22368123 -217.19067383 44.95385742 C-217.03791992 44.21522461 -216.88516602 43.4765918 -216.7277832 42.71557617 C-215.6993471 37.94330745 -214.37480752 33.30540715 -212.92626953 28.64331055 C-212.56612259 27.48158325 -212.20597565 26.31985596 -211.83491516 25.1229248 C-211.56044052 24.24213257 -211.28596588 23.36134033 -211.00317383 22.45385742 C-210.07772263 22.45331265 -209.15227142 22.45276789 -208.19877625 22.45220661 C-185.67217015 22.43780607 -163.14575717 22.39476817 -140.6192627 22.32176685 C-129.7255632 22.28712558 -118.83199013 22.26176245 -107.93823242 22.25830078 C-98.44233311 22.2552597 -88.94665901 22.23474972 -79.45084667 22.19333285 C-74.42363172 22.17201437 -69.39673686 22.15939639 -64.36947632 22.16770363 C-59.63496076 22.17525096 -54.90109338 22.15939313 -50.16669655 22.12579727 C-48.43173953 22.11757225 -46.69671795 22.11780435 -44.9617672 22.12726021 C-34.61769994 22.17804362 -27.73063831 21.89804902 -19.86083984 14.41748047 C-19.06697876 13.45128784 -19.06697876 13.45128784 -18.25708008 12.46557617 C-17.64670898 11.75981445 -17.03633789 11.05405273 -16.4074707 10.3269043 C-15.17156313 8.86032893 -13.94768095 7.38354118 -12.7355957 5.8972168 C-8.76754378 1.36050833 -6.16225565 -0.57658148 0 0 Z " fill="#000101" transform="translate(295.003173828125,173.546142578125)"/>
<path d="M0 0 C4.61704808 2.675358 8.07655158 5.95426935 11.5625 9.9375 C17.39072989 17.23481087 17.39072989 17.23481087 25 22 C27.3710657 22.10440794 29.74499736 22.14652708 32.11833191 22.15821838 C32.8477675 22.16315636 33.5772031 22.16809434 34.3287428 22.17318195 C36.77929952 22.18857183 39.22983001 22.1969216 41.68041992 22.20532227 C43.43453706 22.21489962 45.18865189 22.22490962 46.94276428 22.23532104 C51.71101482 22.26239164 56.47927527 22.28338954 61.24756026 22.30332303 C66.22839786 22.32516929 71.20920481 22.35256463 76.1900177 22.37937927 C85.62471472 22.42932456 95.05942874 22.47425658 104.49415904 22.51740164 C115.23406869 22.56675832 125.97394758 22.62168226 136.71382749 22.67708123 C158.80918969 22.79092947 180.90458123 22.89776233 203 23 C202.69005204 24.92460333 202.37708933 26.84872131 202.06285095 28.77262878 C201.80191351 30.37994511 201.80191351 30.37994511 201.53570461 32.01973248 C200.93872712 35.34087734 200.06687185 38.4331168 198.94140625 41.61328125 C198.55533203 42.71607422 198.16925781 43.81886719 197.77148438 44.95507812 C197.37251953 46.06302734 196.97355469 47.17097656 196.5625 48.3125 C196.16740234 49.43978516 195.77230469 50.56707031 195.36523438 51.72851562 C193.41591372 57.24564446 191.31651978 62.62949808 189 68 C164.70460309 68.07004822 140.4092213 68.12296766 116.11374378 68.15543652 C104.83320047 68.17091236 93.55271986 68.19201564 82.2722168 68.22631836 C72.44134581 68.25619869 62.61052023 68.27556978 52.77960509 68.28226548 C47.57310884 68.28618005 42.36674251 68.2953948 37.16028786 68.31719017 C32.26101289 68.33753369 27.36192153 68.3438381 22.46260834 68.33932304 C20.66347189 68.3401492 18.86432937 68.34612753 17.06522942 68.35761642 C14.61009863 68.37252724 12.15566238 68.36895895 9.70051575 68.36076355 C8.98747262 68.36950207 8.2744295 68.3782406 7.53977901 68.38724393 C2.06917889 68.33783487 -0.96861219 66.79638412 -4.9921875 63.23828125 C-5.61351562 62.60277344 -6.23484375 61.96726562 -6.875 61.3125 C-7.55691406 60.61511719 -8.23882812 59.91773438 -8.94140625 59.19921875 C-11.53585258 56.42754269 -14.01768631 53.57273509 -16.45703125 50.6640625 C-19.13040132 47.78088364 -21.34294784 46.64844003 -25.1875 46.4375 C-30.08580567 46.58736765 -32.38584117 48.29080413 -35.81640625 51.65234375 C-40.56379133 56.74557226 -40.56379133 56.74557226 -45.23193359 61.91113281 C-50.57598092 67.90651611 -50.57598092 67.90651611 -55.66362 68.24050903 C-57.21804373 68.24631436 -58.77253208 68.24097429 -60.3269043 68.22705078 C-61.60040237 68.22748886 -61.60040237 68.22748886 -62.89962769 68.22793579 C-65.70792841 68.22654163 -68.51596433 68.21097636 -71.32421875 68.1953125 C-73.27049108 68.19158268 -75.21676528 68.18873556 -77.16304016 68.18673706 C-82.28737567 68.17909819 -87.41159793 68.15944748 -92.53588867 68.1373291 C-97.76414457 68.11687617 -102.99241876 68.10773652 -108.22070312 68.09765625 C-118.48051852 68.07620186 -128.74024985 68.04206282 -139 68 C-139.96515716 65.7565737 -140.92947292 63.51279198 -141.89331055 61.26879883 C-142.16517937 60.6371003 -142.43704819 60.00540176 -142.71715546 59.35456085 C-145.89176474 51.95939541 -148.53611126 44.56659899 -150.6875 36.8125 C-151.02491211 35.64170898 -151.02491211 35.64170898 -151.36914062 34.44726562 C-151.58119141 33.68736328 -151.79324219 32.92746094 -152.01171875 32.14453125 C-152.29728638 31.12903198 -152.29728638 31.12903198 -152.58862305 30.09301758 C-153.0607096 27.69111962 -153.02650908 25.44272171 -153 23 C-152.38984826 22.99853344 -151.77969652 22.99706688 -151.15105534 22.99555588 C-136.27661594 22.95843809 -121.40238417 22.8993577 -106.52813816 22.81609726 C-99.33491728 22.77635707 -92.14180501 22.74393922 -84.94848633 22.72900391 C-78.67578312 22.71596119 -72.40331938 22.68893029 -66.13075107 22.64538693 C-62.81210411 22.62283026 -59.49381464 22.60917279 -56.17508125 22.60811615 C-52.46214192 22.60574544 -48.75013221 22.57865435 -45.03735352 22.54589844 C-43.94762238 22.5509288 -42.85789124 22.55595917 -41.73513794 22.56114197 C-33.97045859 22.4554462 -27.81193364 20.97455805 -21.6171875 16.140625 C-21.04226562 15.51671875 -20.46734375 14.8928125 -19.875 14.25 C-19.22917969 13.56164062 -18.58335937 12.87328125 -17.91796875 12.1640625 C-15.42927651 9.35604723 -12.95410334 6.53909709 -10.54296875 3.6640625 C-7.19521714 0.05357595 -4.77010808 -0.56118919 0 0 Z " fill="#000000" transform="translate(231,267)"/>
<path d="M0 0 C8.81249455 7.86791536 17.39295845 16.24881474 24.234375 25.921875 C24.234375 26.251875 24.234375 26.581875 24.234375 26.921875 C18.91417478 26.99617415 13.59427831 27.05054747 8.27368164 27.08666992 C6.46470883 27.10173255 4.6557724 27.12218677 2.84692383 27.14819336 C0.24290985 27.1846882 -2.3606202 27.20162657 -4.96484375 27.21484375 C-5.77024094 27.23032761 -6.57563812 27.24581146 -7.40544128 27.26176453 C-13.17761002 27.26348456 -16.36796189 26.04216139 -20.7578125 22.16015625 C-21.37914062 21.52464844 -22.00046875 20.88914062 -22.640625 20.234375 C-23.32253906 19.53699219 -24.00445312 18.83960938 -24.70703125 18.12109375 C-27.30147758 15.34941769 -29.78331131 12.49461009 -32.22265625 9.5859375 C-34.89602632 6.70275864 -37.10857284 5.57031503 -40.953125 5.359375 C-45.85453795 5.50933771 -48.15130985 7.21837505 -51.58984375 10.57421875 C-53.25211369 12.36779906 -54.89892154 14.17117311 -56.53515625 15.98828125 C-57.25952881 16.79023926 -57.25952881 16.79023926 -57.99853516 17.60839844 C-58.95105285 18.67314632 -59.89266655 19.74777459 -60.82177734 20.83300781 C-64.71585132 25.26582156 -67.54603713 26.77329102 -73.44186878 27.16797066 C-74.89716152 27.17633663 -76.3525429 27.17371727 -77.80781555 27.16238403 C-79.01478813 27.16494731 -79.01478813 27.16494731 -80.246144 27.16756237 C-82.9393334 27.17085366 -85.63227304 27.15985951 -88.32543945 27.14892578 C-90.25718683 27.14836159 -92.18893464 27.14867838 -94.12068176 27.14981079 C-99.36405765 27.15038499 -104.60734216 27.1386197 -109.8506968 27.12466288 C-115.33065087 27.11216681 -120.810607 27.1109859 -126.29057312 27.10861206 C-136.66730524 27.10239399 -147.04399526 27.08597873 -157.42070884 27.06591308 C-169.2343789 27.04356427 -181.04805096 27.03256321 -192.86173689 27.02252221 C-217.16305628 27.00161281 -241.46433828 26.96643045 -265.765625 26.921875 C-264.82437585 25.65323381 -263.88120976 24.38601473 -262.93725586 23.11938477 C-262.41223984 22.41354752 -261.88722382 21.70771027 -261.34629822 20.98048401 C-257.51255897 15.98756702 -253.07679554 11.5001092 -248.765625 6.921875 C-248.18039063 6.2825 -247.59515625 5.643125 -246.9921875 4.984375 C-233.13423918 -9.64736739 -214.91665631 -20.68685607 -196.765625 -29.078125 C-195.60289062 -29.62339844 -194.44015625 -30.16867188 -193.2421875 -30.73046875 C-181.49657114 -36.01196444 -169.25166741 -39.31391741 -156.765625 -42.328125 C-156.09619873 -42.49135254 -155.42677246 -42.65458008 -154.73706055 -42.82275391 C-100.66020037 -55.39939086 -40.91128151 -35.71936781 0 0 Z " fill="#000000" transform="translate(376.765625,120.078125)"/>
<path d="M0 0 C5.5604178 2.83936228 9.08264816 7.28214583 13 12 C14.22250411 13.46392299 15.45150878 14.92244621 16.6875 16.375 C17.22761719 17.02210938 17.76773438 17.66921875 18.32421875 18.3359375 C22.4287995 22.41181489 26.69004253 22.29216667 32.22564697 22.2784729 C33.06210935 22.2842653 33.89857173 22.2900577 34.76038146 22.29602563 C37.56718123 22.31305008 40.37381681 22.31590424 43.18066406 22.31884766 C45.19108484 22.32814414 47.20150175 22.33831239 49.21191406 22.34928894 C54.67430469 22.37663449 60.13666946 22.39175187 65.5991106 22.40471697 C71.30599248 22.42032757 77.0128214 22.44712438 82.71966553 22.4727478 C93.52846565 22.51957228 104.3372757 22.55629864 115.14612556 22.58942068 C127.45073276 22.62761614 139.75528682 22.67703304 152.05984926 22.72740483 C177.37319348 22.83077927 202.68657182 22.92002175 228 23 C227.05564552 24.11210593 226.10979603 25.22294245 225.16333008 26.33325195 C224.3734948 27.26135429 224.3734948 27.26135429 223.56770325 28.20820618 C198.4187901 56.95195428 155.55871562 76.13195034 118 80 C110.90252709 80.41822751 103.79517191 80.43914696 96.6875 80.4375 C95.71022949 80.4385675 94.73295898 80.43963501 93.72607422 80.44073486 C79.51429625 80.41832156 66.21912702 79.73351581 52.49267578 75.7265625 C49.9854497 74.99575889 47.46697913 74.35221854 44.93359375 73.71875 C13.95368534 65.61751751 -14.19350248 47.22182308 -36 24 C-33.47958399 22.31972266 -31.61541215 21.45120503 -28.83984375 20.41796875 C-23.13694684 17.92634456 -19.61228805 13.92379712 -15.5625 9.3125 C-14.17012076 7.76498809 -12.77569239 6.21931665 -11.37890625 4.67578125 C-10.7763501 3.99427002 -10.17379395 3.31275879 -9.55297852 2.6105957 C-6.60716446 -0.44451125 -4.12056841 -0.3962085 0 0 Z " fill="#000100" transform="translate(160,357)"/>
</svg>
